<svg class="transition-all duration-500 absolute top-[5px] right-[7px] opacity-100" width="9" height="14" viewBox="0 0 9 14" fill="none" xmlns="http://www.w3.org/2000/svg"><path fill-rule="evenodd" clip-rule="evenodd" d="M4.01731 2.37289C3.80118 2.37224 3.58705 2.41433 3.38725 2.49674C3.18747 2.57914 3.00595 2.70024 2.8531 2.85308C2.70025 3.00593 2.57914 3.18748 2.49675 3.38725C2.41434 3.58706 2.37224 3.80119 2.37289 4.01731L2.3729 4.02088L2.3729 4.58098H1.28276e-05V4.02253C-0.001323 3.49423 0.101685 2.97087 0.303122 2.48248C0.504817 1.99347 0.801219 1.5492 1.17522 1.1752C1.54922 0.801199 1.99347 0.504813 2.48248 0.303119C2.97087 0.101679 3.49424 -0.001323 4.02252 1.28283e-05H4.30093C4.30093 1.28283e-05 4.30093 1.28283e-05 4.30093 1.28283e-05C4.82886 1.11311e-05 5.3516 0.104191 5.83919 0.306584C6.32676 0.508973 6.76964 0.805597 7.14239 1.17947C7.51516 1.55336 7.81042 1.99711 8.01134 2.48527C8.21198 2.97277 8.3146 3.49504 8.31331 4.02223C8.31343 4.64405 8.16872 5.25738 7.89061 5.8136C7.61236 6.37009 7.20826 6.85409 6.71034 7.22718C6.71001 7.22743 6.70968 7.22768 6.70935 7.22792L5.57995 8.07709C5.37506 8.23028 5.20864 8.42907 5.09388 8.65774C4.97923 8.88618 4.91929 9.13814 4.91879 9.3937V10.5214H2.5459L2.5459 9.39093C2.54684 8.7667 2.69311 8.15127 2.9731 7.59338C3.25282 7.03603 3.65833 6.55137 4.15762 6.17772C4.1581 6.17736 4.15858 6.177 4.15906 6.17664L5.28705 5.32854C5.49005 5.17653 5.65481 4.97926 5.76824 4.75241C5.88166 4.52557 5.94061 4.2754 5.94042 4.02177L7.12686 4.02088L5.94043 4.01732C5.94107 3.80161 5.89914 3.58789 5.81704 3.3884C5.73492 3.18888 5.61427 3.00757 5.46199 2.85484C5.30969 2.70208 5.12873 2.58087 4.92948 2.49817C4.73025 2.41547 4.51666 2.3729 4.30094 2.3729L4.01731 2.37289Z" fill="white"></path><path d="M4.98324 12.8134C4.98324 13.4687 4.45205 13.9998 3.79679 13.9998C3.14154 13.9998 2.61035 13.4687 2.61035 12.8134C2.61035 12.1581 3.14154 11.627 3.79679 11.627C4.45205 11.627 4.98324 12.1581 4.98324 12.8134Z" fill="white"></path></svg>