<svg xmlns="http://www.w3.org/2000/svg" width="29.268" height="32" viewBox="0 0 29.268 32">
    <path fill="#081c4c" d="M272.508 67h9.756v2.439a2.443 2.443 0 0 1-2.439 2.439h-4.878a2.442 2.442 0 0 1-2.438-2.439zm19.024 0h-4.39v2.439a7.318 7.318 0 0 1-7.318 7.317h-4.878a7.317 7.317 0 0 1-7.317-7.317V67h-4.39a.488.488 0 0 0-.488.487v2.443a11.707 11.707 0 0 0 11.707 11.707h5.854A11.707 11.707 0 0 0 292.02 69.93v-2.439a.486.486 0 0 0-.487-.487m-19.024-2.439a2.442 2.442 0 0 1 2.438-2.439h4.878a2.442 2.442 0 0 1 2.439 2.439V67h4.878v-2.435a7.325 7.325 0 0 0-7.318-7.317h-4.878a7.325 7.325 0 0 0-7.317 7.317V67h4.878zm12 19.8h-13.657a.493.493 0 0 0-.488.548 4.88 4.88 0 0 0 4.848 4.33h4.933a4.879 4.879 0 0 0 4.847-4.33.492.492 0 0 0-.487-.548" transform="translate(-262.752 -57.248)"/>
</svg>
